<svg xmlns="http://www.w3.org/2000/svg" xmlns:xlink="http://www.w3.org/1999/xlink" fill="none" version="1.1" width="44" height="44" viewBox="0 0 44 44"><defs><clipPath id="master_svg0_121_769"><rect x="0" y="0" width="44" height="44" rx="0"/></clipPath></defs><g clip-path="url(#master_svg0_121_769)"><g></g><g><g><path d="M37.5,22Q37.499998000000005,21.9015086,37.519211,21.80490969Q37.538429,21.70831078,37.576118,21.6173166Q37.613808,21.52632242,37.66853,21.44442987Q37.723248,21.36253726,37.792892,21.29289329Q37.862534,21.22324938,37.944427,21.16853052Q38.026321,21.11381161,38.117313,21.07612056Q38.208309,21.0384295,38.304909,21.01921481Q38.401508,21.00000006,38.5,21Q38.598488,21.00000006,38.695087,21.01921481Q38.791687,21.03842956,38.882683,21.07612062Q38.973679,21.11381161,39.055569,21.16853046Q39.137463,21.22324938,39.207108,21.29289329Q39.276749,21.36253726,39.331467,21.44442981Q39.386185,21.52632242,39.423878,21.6173166Q39.461571,21.70831078,39.480785,21.80490969Q39.5,21.9015086,39.5,22L39.5,38.5Q39.5,38.598492,39.480785,38.695088999999996Q39.461571,38.791686999999996,39.423878,38.882683Q39.386185,38.973675,39.331467,39.055569Q39.276749,39.137461,39.207108,39.207105999999996Q39.137463,39.276748999999995,39.055569,39.331467Q38.973679,39.386185,38.882683,39.423878Q38.791687,39.461569,38.695087,39.480783Q38.598488,39.5,38.5,39.5L5.5,39.5Q5.4015086,39.5,5.30490969,39.480785Q5.20831078,39.461569,5.1173166,39.423878Q5.02632242,39.386185,4.9444298700000004,39.331467Q4.86253726,39.276748999999995,4.79289329,39.207105999999996Q4.72324938,39.137461,4.66853052,39.055569Q4.61381161,38.973675,4.57612056,38.882683Q4.5384295,38.791686999999996,4.51921481,38.695088999999996Q4.50000006,38.598492,4.5,38.5L4.5,22.0076090498Q4.50000006,21.909117647,4.51921481,21.81251875Q4.53842956,21.71591985,4.57612062,21.62492567Q4.61381161,21.53393149,4.66853046,21.45203888Q4.72324938,21.37014627,4.79289329,21.3005023Q4.86253726,21.23085845,4.94442981,21.17613953Q5.02632242,21.12142068,5.1173166,21.08372962Q5.20831078,21.046038629999998,5.30490969,21.02682388Q5.4015086,21.00760913,5.5,21.00760907Q5.5984914,21.00760913,5.69509031,21.02682382Q5.79168922,21.046038629999998,5.8826834,21.08372962Q5.97367758,21.12142068,6.0555701299999996,21.17613959Q6.13746274,21.23085845,6.20710671,21.3005023Q6.27675062,21.37014627,6.33146948,21.45203888Q6.38618839,21.53393146,6.42387944,21.62492564Q6.4615705,21.71591982,6.48078519,21.81251873Q6.49999994,21.909117639,6.5,22.0076090395L6.5,37.5L37.5,37.5L37.5,22Z" fill-rule="evenodd" fill="#FFFFFF" fill-opacity="1" style="mix-blend-mode:passthrough"/></g><g><path d="M21.2928929,4.79289323L13.04289323,13.0428929Q12.90224093,13.1835451,12.8261205,13.367316200000001Q12.75,13.5510874,12.75,13.75Q12.75000006,13.8484917,12.76921481,13.9450893Q12.78842956,14.0416889,12.82612062,14.1326828Q12.863811609999999,14.2236767,12.91853046,14.3055696Q12.97324938,14.3874626,13.04289329,14.4571066Q13.11253726,14.5267506,13.19442981,14.5814686Q13.27632242,14.6361876,13.3673166,14.6738787Q13.45831078,14.7115698,13.55490969,14.7307844Q13.6515086,14.75,13.75,14.75Q13.9489124,14.75,14.13268352,14.6738796Q14.31645459,14.5977592,14.45710689,14.4571066L22,6.9142135L29.542377000000002,14.4565897L29.542893,14.4571066Q29.683546,14.5977592,29.867317,14.6738796Q30.051088,14.75,30.25,14.75Q30.348492,14.75,30.445089,14.7307854Q30.541687,14.7115698,30.632683,14.6738787Q30.723675,14.6361866,30.805569,14.5814686Q30.887461,14.5267487,30.957106,14.4571056Q31.026749,14.3874607,31.081467,14.3055687Q31.136185,14.2236767,31.173878,14.1326828Q31.211569,14.0416889,31.230783,13.9450893Q31.25,13.8484917,31.25,13.75Q31.249998,13.5510864,31.173878,13.3673153Q31.097755,13.1835442,30.957106,13.0428925L22.7071066,4.79289323Q22.6374626,4.72324932,22.5555696,4.66853046Q22.4736767,4.61381161,22.382682799999998,4.57612062Q22.2916889,4.53842956,22.1950893,4.51921487Q22.0984907,4.50000012,21.999999000000003,4.50000006Q21.9015074,4.50000012,21.8049088,4.51921481Q21.7083097,4.53842956,21.6173153,4.57612062Q21.5263214,4.61381161,21.4444294,4.6685304Q21.3625364,4.72324932,21.2928929,4.79289323Z" fill-rule="evenodd" fill="#FFFFFF" fill-opacity="1" style="mix-blend-mode:passthrough"/></g><g><path d="M20.99267578125,5.5Q20.99267584125,5.4015086,21.01189059125,5.30490969Q21.03110534125,5.20831078,21.06879640125,5.1173166Q21.10648739125,5.02632242,21.16120624125,4.9444298700000004Q21.21592516125,4.86253726,21.28556907125,4.79289329Q21.35521304125,4.72324938,21.43710559125,4.66853052Q21.51899820125,4.61381161,21.60999238125,4.57612056Q21.70098656125,4.5384295,21.79758547125,4.51921481Q21.89418438125,4.50000006,21.99267578125,4.5Q22.09116718125,4.50000006,22.18776609125,4.51921481Q22.28436500125,4.53842956,22.37535918125,4.57612062Q22.46635336125,4.61381161,22.54824591125,4.66853046Q22.63013852125,4.72324938,22.69978249125,4.79289329Q22.76942640125,4.86253726,22.82414526125,4.94442981Q22.87886417125,5.02632242,22.91655522125,5.1173166Q22.95424628125,5.20831078,22.97346097125,5.30490969Q22.99267572125,5.4015086,22.99267578125,5.5L22.99267578125,29.333334Q22.99267572125,29.431824,22.97346097125,29.528423Q22.95424622125,29.625023,22.91655516125,29.716015Q22.87886417125,29.807011,22.82414532125,29.888903Q22.76942640125,29.970795,22.69978249125,30.04044Q22.63013852125,30.110085,22.54824597125,30.164801Q22.46635336125,30.219521,22.37535918125,30.25721Q22.28436500125,30.294903,22.18776609125,30.314117Q22.09116718125,30.333332,21.99267578125,30.333334Q21.89418438125,30.333332,21.79758547125,30.314117Q21.70098656125,30.294903,21.60999238125,30.257212Q21.51899820125,30.219521,21.43710565125,30.164803Q21.35521304125,30.110085,21.28556907125,30.04044Q21.21592516125,29.970795,21.16120630125,29.888905Q21.10648739125,29.807011,21.06879634125,29.716015Q21.03110528125,29.625023,21.01189059125,29.528423Q20.99267584125,29.431824,20.99267578125,29.333334L20.99267578125,5.5Z" fill-rule="evenodd" fill="#FFFFFF" fill-opacity="1" style="mix-blend-mode:passthrough"/></g></g></g></svg>